<svg xmlns="http://www.w3.org/2000/svg" viewBox="0 0 512.54345 512">
  <g>
    <g id="g8">
      <g id="g6">
        <path
          d="M 525.3,989.5 C 241.2,989.5 10,758.3 10,474.1 10,277.3 119.6,100.5 295.9,12.7 c 7.9,-3.9 17.5,-2.4 23.7,3.8 6.2,6.2 7.9,15.8 4,23.7 -32.2,65.4 -48.5,135.7 -48.5,208.9 0,261.4 212.7,474.1 474.1,474.1 74,0 145,-16.7 211,-49.5 7.9,-3.9 17.5,-2.4 23.7,3.8 6.3,6.3 7.9,15.8 3.9,23.7 C 900.5,879 723.3,989.5 525.3,989.5 Z"
          id="path4"
        />
      </g>
    </g>
    <g id="g10" />
    <g id="g12" />
    <g id="g14" />
    <g id="g16" />
    <g id="g18" />
    <g id="g20" />
    <g id="g22" />
    <g id="g24" />
    <g id="g26" />
    <g id="g28" />
    <g id="g30" />
    <g id="g32" />
    <g id="g34" />
    <g id="g36" />
    <g id="g38" />
  </g>
</svg>
